<svg xmlns="http://www.w3.org/2000/svg" xmlns:xlink="http://www.w3.org/1999/xlink" contentStyleType="text/css" data-diagram-type="STATE" height="627px" preserveAspectRatio="none" style="width:557px;height:627px;background:#FFFFFF;" version="1.1" viewBox="0 0 557 627" width="557px" zoomAndPan="magnify"><?plantuml 1.2026.6?><defs/><g><g class="start_entity" data-qualified-name=".start." data-source-line="2" id="ent0001"><ellipse cx="113.63" cy="16" fill="#222222" rx="10" ry="10" style="stroke:#222222;stroke-width:1;"/></g><g class="entity" data-qualified-name="Submitted" data-source-line="2" id="ent0002"><rect fill="#F1F1F1" height="50" rx="12.5" ry="12.5" style="stroke:#181818;stroke-width:0.5;" width="83.0342" x="72.11" y="102"/><line style="stroke:#181818;stroke-width:0.5;" x1="72.11" x2="155.1442" y1="128.0986" y2="128.0986"/><text fill="#000000" font-family="sans-serif" font-size="14" lengthAdjust="spacing" textLength="63.0342" x="82.11" y="120.1318">Submitted</text></g><g class="entity" data-qualified-name="UnderReview" data-source-line="3" id="ent0004"><rect fill="#F1F1F1" height="50" rx="12.5" ry="12.5" style="stroke:#181818;stroke-width:0.5;" width="104.0342" x="61.61" y="228"/><line style="stroke:#181818;stroke-width:0.5;" x1="61.61" x2="165.6442" y1="254.0986" y2="254.0986"/><text fill="#000000" font-family="sans-serif" font-size="14" lengthAdjust="spacing" textLength="84.0342" x="71.61" y="246.1318">UnderReview</text></g><g class="entity" data-qualified-name="Accepted" data-source-line="4" id="ent0006"><rect fill="#F1F1F1" height="50" rx="12.5" ry="12.5" style="stroke:#181818;stroke-width:0.5;" width="78.3721" x="23.44" y="480"/><line style="stroke:#181818;stroke-width:0.5;" x1="23.44" x2="101.8121" y1="506.0986" y2="506.0986"/><text fill="#000000" font-family="sans-serif" font-size="14" lengthAdjust="spacing" textLength="58.3721" x="33.44" y="498.1318">Accepted</text></g><g class="entity" data-qualified-name="Rejected" data-source-line="5" id="ent0008"><rect fill="#F1F1F1" height="50" rx="12.5" ry="12.5" style="stroke:#181818;stroke-width:0.5;" width="75.2549" x="186" y="480"/><line style="stroke:#181818;stroke-width:0.5;" x1="186" x2="261.2549" y1="506.0986" y2="506.0986"/><text fill="#000000" font-family="sans-serif" font-size="14" lengthAdjust="spacing" textLength="55.2549" x="196" y="498.1318">Rejected</text></g><g class="entity" data-qualified-name="Attention" data-source-line="6" id="ent0010"><rect fill="#F1F1F1" height="50" rx="12.5" ry="12.5" style="stroke:#181818;stroke-width:0.5;" width="75.2617" x="163.99" y="354"/><line style="stroke:#181818;stroke-width:0.5;" x1="163.99" x2="239.2517" y1="380.0986" y2="380.0986"/><text fill="#000000" font-family="sans-serif" font-size="14" lengthAdjust="spacing" textLength="55.2617" x="173.99" y="372.1318">Attention</text></g><g class="end_entity" data-qualified-name=".end." data-source-line="10" id="ent0014"><ellipse cx="142.63" cy="602" fill="none" rx="11" ry="11" style="stroke:#222222;stroke-width:1;"/><ellipse cx="142.63" cy="602" fill="#222222" rx="6" ry="6" style="stroke:#222222;stroke-width:1;"/></g><!--link *start* to Submitted--><g class="link" data-entity-1="ent0001" data-entity-2="ent0002" data-link-type="dependency" data-source-line="2" id="lnk3"><path d="M113.63,26.29 C113.63,42.87 113.63,73.03 113.63,96.85" fill="none" id="*start*-to-Submitted" style="stroke:#181818;stroke-width:1;"/><polygon fill="#181818" points="113.63,101.85,117.63,92.85,113.63,96.85,109.63,92.85,113.63,101.85" style="stroke:#181818;stroke-width:1;stroke-linejoin:miter;stroke-miterlimit:10;"/><text fill="#000000" font-family="sans-serif" font-size="13" lengthAdjust="spacing" textLength="134.3989" x="114.63" y="69.1938">Usu&#225;rio submete artigo</text></g><!--link Submitted to UnderReview--><g class="link" data-entity-1="ent0002" data-entity-2="ent0004" data-link-type="dependency" data-source-line="3" id="lnk5"><path d="M113.63,152.5 C113.63,174.24 113.63,200.83 113.63,222.55" fill="none" id="Submitted-to-UnderReview" style="stroke:#181818;stroke-width:1;"/><polygon fill="#181818" points="113.63,227.55,117.63,218.55,113.63,222.55,109.63,218.55,113.63,227.55" style="stroke:#181818;stroke-width:1;stroke-linejoin:miter;stroke-miterlimit:10;"/><text fill="#000000" font-family="sans-serif" font-size="13" lengthAdjust="spacing" textLength="180.6543" x="114.63" y="195.1938">Artigo &#233; entregue aos revisores</text></g><!--link UnderReview to Accepted--><g class="link" data-entity-1="ent0004" data-entity-2="ent0006" data-link-type="dependency" data-source-line="4" id="lnk7"><path d="M81.81,278.11 C60.59,296.32 34.48,323.35 22.63,354 C6,396.98 26.93,445.1399 44.32,475.2599" fill="none" id="UnderReview-to-Accepted" style="stroke:#181818;stroke-width:1;"/><polygon fill="#181818" points="46.82,479.59,45.7841,469.7958,44.32,475.2599,38.8559,473.7958,46.82,479.59" style="stroke:#181818;stroke-width:1;stroke-linejoin:miter;stroke-miterlimit:10;"/><text fill="#000000" font-family="sans-serif" font-size="13" lengthAdjust="spacing" textLength="122.8398" x="23.63" y="384.1938">2 pareceres positivos</text></g><!--link UnderReview to Rejected--><g class="link" data-entity-1="ent0004" data-entity-2="ent0008" data-link-type="dependency" data-source-line="5" id="lnk9"><path d="M166.04,258.13 C230.19,264.39 333.2,278.8 356.63,308 C377.27,333.74 512.11,218.57 353.63,450 C332.98,480.15 297.0189,492.5498 266.5889,498.4398" fill="none" id="UnderReview-to-Rejected" style="stroke:#181818;stroke-width:1;"/><polygon fill="#181818" points="261.68,499.39,271.2761,501.6068,266.5889,498.4398,269.7559,493.7526,261.68,499.39" style="stroke:#181818;stroke-width:1;stroke-linejoin:miter;stroke-miterlimit:10;"/><text fill="#000000" font-family="sans-serif" font-size="13" lengthAdjust="spacing" textLength="127.9116" x="413.63" y="384.1938">2 pareceres negativos</text></g><!--link UnderReview to Attention--><g class="link" data-entity-1="ent0004" data-entity-2="ent0010" data-link-type="dependency" data-source-line="6" id="lnk11"><path d="M106.47,278.19 C103.7,292.42 102.8,310.26 110.63,324 C122.08,344.11 139.7052,355.5381 159.3252,363.9581" fill="none" id="UnderReview-to-Attention" style="stroke:#181818;stroke-width:1;"/><polygon fill="#181818" points="163.92,365.93,157.2269,358.7049,159.3252,363.9581,154.072,366.0565,163.92,365.93" style="stroke:#181818;stroke-width:1;stroke-linejoin:miter;stroke-miterlimit:10;"/><text fill="#000000" font-family="sans-serif" font-size="13" lengthAdjust="spacing" textLength="240.6333" x="111.63" y="321.1938">Pareceres conflitantes (de igual tamanho)</text></g><!--link Attention to Accepted--><g class="link" data-entity-1="ent0010" data-entity-2="ent0006" data-link-type="dependency" data-source-line="7" id="lnk12"><path d="M163.67,395.34 C131.05,408.83 88.39,427.32 82.63,434 C71.73,446.64 67.5108,459.9082 65.2508,474.5882" fill="none" id="Attention-to-Accepted" style="stroke:#181818;stroke-width:1;"/><polygon fill="#181818" points="64.49,479.53,69.8128,471.2434,65.2508,474.5882,61.906,470.0262,64.49,479.53" style="stroke:#181818;stroke-width:1;stroke-linejoin:miter;stroke-miterlimit:10;"/><text fill="#000000" font-family="sans-serif" font-size="13" lengthAdjust="spacing" textLength="119.2407" x="83.63" y="447.1938">Consenso por aceite</text></g><!--link Attention to Rejected--><g class="link" data-entity-1="ent0010" data-entity-2="ent0008" data-link-type="dependency" data-source-line="8" id="lnk13"><path d="M205.97,404.5 C209.83,426.24 214.5551,452.9071 218.4151,474.6271" fill="none" id="Attention-to-Rejected" style="stroke:#181818;stroke-width:1;"/><polygon fill="#181818" points="219.29,479.55,221.6535,469.9889,218.4151,474.6271,213.7769,471.3887,219.29,479.55" style="stroke:#181818;stroke-width:1;stroke-linejoin:miter;stroke-miterlimit:10;"/><text fill="#000000" font-family="sans-serif" font-size="13" lengthAdjust="spacing" textLength="130.0762" x="214.94" y="447.1938">Consenso por rejei&#231;&#227;o</text></g><!--link Accepted to *end*--><g class="link" data-entity-1="ent0006" data-entity-2="ent0014" data-link-type="dependency" data-source-line="10" id="lnk15"><path d="M83.23,530.46 C100.63,551.14 121.2898,575.6651 132.7398,589.2651" fill="none" id="Accepted-to-*end*" style="stroke:#181818;stroke-width:1;"/><polygon fill="#181818" points="135.96,593.09,133.2235,583.6289,132.7398,589.2651,127.1036,588.7813,135.96,593.09" style="stroke:#181818;stroke-width:1;stroke-linejoin:miter;stroke-miterlimit:10;"/></g><!--link Rejected to *end*--><g class="link" data-entity-1="ent0008" data-entity-2="ent0014" data-link-type="dependency" data-source-line="11" id="lnk16"><path d="M202.77,530.46 C185.14,551.14 164.2147,575.6858 152.6147,589.2858" fill="none" id="Rejected-to-*end*" style="stroke:#181818;stroke-width:1;"/><polygon fill="#181818" points="149.37,593.09,158.2539,588.8383,152.6147,589.2858,152.1672,583.6467,149.37,593.09" style="stroke:#181818;stroke-width:1;stroke-linejoin:miter;stroke-miterlimit:10;"/></g><?plantuml-src TT4nJWD130NGFgTm2P7IK58WhN8159GAKGopdyLHOgyytd0UH85oZhrOl4H95XBA-VEVnz8GFKzVQ3PxeAVkTSFkgEcUbgNhFusLIeHmK3BdHYSqQWrcAJLiWItZ8rJrKw9-Hn0tD5quBMHnNzHGWe_1CA3A6UtXpJjgao4ZYjHgOUUjNYCBh90lYQ19_v4g5XPdbJ2F9v5LtjRiIJmEDpM8cowjoTCcoRlUnfop-xFhNAL0YiQYHYc37HVrqPw_wXOvzz_zbqu6SnmwaFYAY4xm6Eq1?></g></svg>